<?xml version="1.0" encoding="utf-8"?>
<!-- Generator: Adobe Illustrator 16.0.0, SVG Export Plug-In . SVG Version: 6.00 Build 0)  -->
<!DOCTYPE svg PUBLIC "-//W3C//DTD SVG 1.1//EN" "http://www.w3.org/Graphics/SVG/1.1/DTD/svg11.dtd">
<svg version="1.1" id="Layer_1" xmlns="http://www.w3.org/2000/svg" xmlns:xlink="http://www.w3.org/1999/xlink" x="0px" y="0px"
	 width="1000px" height="259.917px" viewBox="0 0 1000 259.917" enable-background="new 0 0 1000 259.917" xml:space="preserve">
<g>
	<polygon fill-rule="evenodd" clip-rule="evenodd" fill="#D9E9F8" points="74.667,14.635 934.402,14.635 934.402,247.417 
		74.667,247.417 74.667,14.635 	"/>
	<path fill-rule="evenodd" clip-rule="evenodd" fill="#75B2DE" d="M384.364,214.399c12.57,0,22.762,10.188,22.762,22.754
		c0,12.575-10.192,22.765-22.762,22.765s-22.762-10.189-22.762-22.765C361.602,224.587,371.794,214.399,384.364,214.399
		L384.364,214.399z"/>
	<path fill-rule="evenodd" clip-rule="evenodd" fill="#75B2DE" d="M309.022,247.417h24.688v10.622h-84.828v-10.622h25.401V122.485
		h-19.837v-9.535h11.371c14.063-0.317,33.488-0.7,43.205-3.139v34.823c2.148-7.379,16.228-38.531,44.363-38.531
		c12.088,0,24.379,7.85,24.379,21.848c0,10.177-8.824,18.734-19.99,18.734c-8.665,0-17.822-7.016-17.445-18.875
		c0.304-9.576-6.736-7.577-10.712-2.707c-10.984,13.438-19.903,37.386-20.595,72.987V247.417L309.022,247.417z"/>
	<path fill-rule="evenodd" clip-rule="evenodd" fill="#75B2DE" d="M74.667,15.174v232.243h42.304c18.918,0,41.577-7.4,54.829-24.908
		c12.367-16.336,14.314-45.692,14.314-70.323v-41.918c-0.339-23.373-1.619-42.364-6.402-55.437
		c-11.051-30.219-32.587-39.657-65.449-39.657H74.667L74.667,15.174z M32.964,247.417V15.174L0,15.172V4.546h117.057
		c75.857,0,120.636,57.037,120.636,126.747c0,69.711-50.467,126.747-120.37,126.747H0v-10.622H32.964L32.964,247.417z"/>
	<path fill-rule="evenodd" clip-rule="evenodd" fill="#0283C7" d="M522.662,14.635v107.983h41.959
		c34.555,0,43.088-21.297,43.088-44.911v-16.9c0-34.34-14.638-46.172-43.088-46.172H522.662L522.662,14.635z M522.662,132.655
		v114.763h34.299v10.622H447.996v-10.622h32.961V14.635h-32.961V0.77h125.176c51.834,0,83.751,29.674,83.751,65.942
		s-33.881,65.942-91.606,65.942H522.662L522.662,132.655z"/>
	<path fill-rule="evenodd" clip-rule="evenodd" fill="#0283C7" d="M874.306,4.025c12.782,0,23.139,10.357,23.139,23.136
		c0,12.777-10.356,23.139-23.139,23.139s-23.14-10.362-23.14-23.139C851.166,14.382,861.523,4.025,874.306,4.025L874.306,4.025z
		 M833.432,247.417h24.723l0.006-127.563h-20.329v-10.368h11.859c14.063-0.314,35.156-0.699,44.873-3.139v141.07h23.692v10.622
		h-84.824V247.417L833.432,247.417z"/>
	<path fill-rule="evenodd" clip-rule="evenodd" fill="#0283C7" d="M781.564,144.259c0-24.642-10.362-30.815-25.803-30.815
		c-12.001,0-23.209,5.119-31.43,14.377c-13.573,15.284-13.389,39.458-14.203,57.84v61.757h24.388v10.622h-86.21v-10.622h25.418
		V14.635h-22.954V3.138h11.854c14.063-0.315,37.787-0.7,47.504-3.138v127.656c15.81-19.152,37.051-25.833,58.551-25.464
		c29.15,0.496,49.295,12.47,49.295,39.208v106.018h22.667v10.622h-82.77v-10.622h23.692V144.259L781.564,144.259z"/>
	<path fill-rule="evenodd" clip-rule="evenodd" fill="#0283C7" d="M970.807,247.417H1000v10.622h-95.816v-10.622h30.219V14.635
		h-20.898V3.138h9.799c14.062-0.315,37.786-0.7,47.504-3.138V247.417L970.807,247.417z"/>
</g>
</svg>
